<svg id="Layer_1" data-name="Layer 1" xmlns="http://www.w3.org/2000/svg" viewBox="0 0 325.44 393.79"><defs><style>.cls-1{fill:#282828;}.cls-2{fill:#fff;}.cls-3{fill:#fbae44;}.cls-4{fill:#f0efef;}.cls-5{fill:#eb9f41;}.cls-6{fill:#ea4748;}</style></defs><g id="baby_penguin" data-name="baby penguin"><path class="cls-1" d="M357.05,334c11.89-.15,48.8,30.74,78.59,51.56,39.15,27.38,36.3,55.61,29,66.83-2.87,4.42-7.65,4.63-12.4,3.26a30.65,30.65,0,0,1-4.55-1.74c-5.44-2.55-16-10.8-19.41-15.13-8.37-10.52-30.56-38.95-48.18-63.54C364.24,353.1,352.08,334.07,357.05,334Z" transform="translate(-143.63 -192.74)"/><path class="cls-2" d="M429.37,438.14c3.37,4.23,13.86,12.41,19,14.83,1,.46,1.95.86,2.87,1.19.65-4.44,0-12.24-8.21-21.92-6.49-7.64-32.66-30.08-56.17-49.78C402.83,404.3,421.16,427.82,429.37,438.14Z" transform="translate(-143.63 -192.74)"/><path class="cls-1" d="M255.66,334c-11.9-.15-48.81,30.74-78.59,51.56-39.16,27.38-36.31,55.61-29,66.83,2.86,4.42,7.64,4.63,12.39,3.26a30.65,30.65,0,0,0,4.55-1.74c5.44-2.55,16-10.8,19.41-15.13,8.37-10.52,30.56-38.95,48.18-63.54C248.46,353.1,260.62,334.07,255.66,334Z" transform="translate(-143.63 -192.74)"/><path class="cls-2" d="M183.33,438.14c-3.37,4.23-13.86,12.41-19,14.83-1,.46-1.95.86-2.87,1.19-.65-4.44,0-12.24,8.21-21.92,6.49-7.64,32.66-30.08,56.17-49.78C209.87,404.3,191.54,427.82,183.33,438.14Z" transform="translate(-143.63 -192.74)"/><path class="cls-3" d="M264.44,570v16.56H187.55s5.17-36.07,43.47-33.47C263.35,555.26,264.44,570,264.44,570Z" transform="translate(-143.63 -192.74)"/><path class="cls-3" d="M349.21,570v16.56H426.1s-5.16-36.07-43.47-33.47C350.3,555.26,349.21,570,349.21,570Z" transform="translate(-143.63 -192.74)"/><path class="cls-1" d="M433.18,453.68c-9.44-50.59-36.65-96.8-36.67-96.84h0c7-68.33-14-98.82-37.45-118.62a81.42,81.42,0,0,0-46.53-19,51.61,51.61,0,0,1,10.08-13.66c-6.19-.05-13.81,5.5-13.81,5.5,1.45-9.43,11.3-18.35,11.3-18.35-18.65,1.47-26,14.49-28.65,27.65a81.43,81.43,0,0,0-37.72,17.83c-23.49,19.8-44.48,50.29-37.44,118.62,0,0-27.23,46.23-36.67,96.84-5.7,30.52-4.92,62.64,12.22,87.15,8.95,12.81,22.37,23.55,41.67,30.9,0,0,75,28.33,144.67.41,19.68-7.27,33.35-18,42.48-30.88C438.08,516.69,438.91,484.38,433.18,453.68Z" transform="translate(-143.63 -192.74)"/><path class="cls-2" d="M412.87,447.36c-8.12-47.95-30.3-90.66-30.3-90.66,14.66-37.2,3.86-71.14-10.76-77.2-24-10-36.13,24.12-39.15,35.2-4.57-7.26-12.27-16.38-26.11-17.23-13.23.81-20.77,9-25.43,16,.14.49-14.73-44.27-39.52-34-14.63,6.06-25.5,34.54-11,79.8,0,0-20.15,38.33-29,82.94a208.71,208.71,0,0,0-3.93,31.1c1.94,39.81,20.75,76.18,77.87,87.27a158.78,158.78,0,0,0,62.27,0c57.07-11.08,75.87-47.82,77.79-88.09A206.35,206.35,0,0,0,412.87,447.36Z" transform="translate(-143.63 -192.74)"/><path class="cls-4" d="M415.63,472.52c-1.92,40.27-20.72,77-77.79,88.09a158.78,158.78,0,0,1-62.27,0c-57.12-11.09-75.93-47.46-77.87-87.27-2.07,45.22,13.82,89.44,77.87,101.88a158.78,158.78,0,0,0,62.27,0C401.76,562.81,417.67,518.21,415.63,472.52Z" transform="translate(-143.63 -192.74)"/><path class="cls-5" d="M326.66,327.8s-.35.82-.38.87h0c-5.16,11.22-11.91,24.24-19.86,24.24-7.55,0-14.09-11.78-19.09-22.6l-1-2.52h0l-9.54-3.56c.2.57,13,37.11,29.64,37.11,16.24,0,29.69-36.54,29.9-37.11Z" transform="translate(-143.63 -192.74)"/><path class="cls-1" d="M316.26,331.66Zm0,0h0l-9.81,3.63-6.13-2.3h0l-4.9-1.83-9-3.37,1,2.52c5,10.82,11.54,22.6,19.09,22.6,7.95,0,14.7-13,19.86-24.24l.38-.88Z" transform="translate(-143.63 -192.74)"/><path class="cls-3" d="M306.55,297.47c-24.67,1.51-29.77,26.75-29.77,26.75l23.49,8.8,6.13,2.29,9.8-3.63,20.12-7.46S331.22,299,306.55,297.47Z" transform="translate(-143.63 -192.74)"/><path class="cls-6" d="M410.74,315.13a48.6,48.6,0,0,0,.57-15.08,44.2,44.2,0,0,0-1.43-7.19c-.33-1.17-.71-2.32-1.15-3.45-.21-.56-.43-1.11-.67-1.66a5.48,5.48,0,0,1-.4-.85,2.77,2.77,0,0,1,0-.86c.06-1,.31-4.68-1.56-3.05a6.15,6.15,0,0,0-.91-3.82c-.81-1.06-1.87-.46-2.57.41a14,14,0,0,0-5.53-3.5,3.94,3.94,0,0,1-.85-.23c-.19-.12-.23-.44-.3-.68q-.25-.81-.51-1.59c-.35-1.05-.72-2.09-1.11-3.13A77.9,77.9,0,0,0,389,259a73.66,73.66,0,0,0-14.76-18.3,83.61,83.61,0,0,0-18.09-12.22,104.36,104.36,0,0,0-22.06-8.08A124.63,124.63,0,0,0,309.25,217a92.9,92.9,0,0,0-12.37.45,123.3,123.3,0,0,0-12.42,1.76,109.55,109.55,0,0,0-22.76,7,88.54,88.54,0,0,0-19.13,11.24A73.61,73.61,0,0,0,227,253.86a76.85,76.85,0,0,0-6.21,10.91c-.89,1.92-1.71,3.88-2.45,5.86-.38,1-.75,2.08-1.09,3.13q-.25.75-.48,1.5c0,.12-.06.27-.11.38s0,.1-.27.24-.65.16-1,.26a14.32,14.32,0,0,0-5.33,3.44c-.69-.87-1.75-1.47-2.57-.41a6.13,6.13,0,0,0-.9,3.82c-.27-.23-.69-.57-1.07-.39s-.41.63-.46.94a8.52,8.52,0,0,0-.07,1.75c0,.28,0,.56,0,.84a4.21,4.21,0,0,1,0,.51,1.87,1.87,0,0,1-.25.73,41,41,0,0,0-2.94,9.5,49.22,49.22,0,0,0-.82,9.62,45.63,45.63,0,0,0,.35,5.23c.1.8.22,1.59.36,2.38a5.19,5.19,0,0,1,.19,1,8.36,8.36,0,0,1-.33,1.26,8,8,0,0,0-.11,4c.37,1.09,1.26.83,2,.17a20.94,20.94,0,0,0,1.51,3.47c.27.52.61,1,.86,1.55a3.32,3.32,0,0,1,.12,1.1,4.41,4.41,0,0,0,.54,2.05c.45.65,1,.2,1.37-.3A14,14,0,0,0,214,332.8a9.83,9.83,0,0,0,4.17.44,10.52,10.52,0,0,0,1.93-.41,8.65,8.65,0,0,0,1-.35,1.54,1.54,0,0,0,.47-.21c.12-.13,0-.09,0-.28a12.42,12.42,0,0,0-.34-1.82c-.13-.71-.25-1.43-.36-2.14-.28-1.71-.51-3.43-.71-5.15a115.11,115.11,0,0,1,.15-29,92,92,0,0,1,1.78-9.45q.6-2.4,1.32-4.77c.31-1,.87-2.76-.6-3.22a72.93,72.93,0,0,1,9.7-19.93A67.47,67.47,0,0,1,246,242.27a80.86,80.86,0,0,1,16.33-10,99.76,99.76,0,0,1,19.41-6.58,118,118,0,0,1,21.82-2.93,100.83,100.83,0,0,1,22.33,1.86,104.9,104.9,0,0,1,20,5.71,85.63,85.63,0,0,1,17.23,9.2A69.46,69.46,0,0,1,377,252.27a70.7,70.7,0,0,1,11.07,18.93c.69,1.74,1.31,3.49,1.87,5.27-1.14.35-1.09,1.69-.81,2.58.46,1.44.88,2.89,1.25,4.35.73,2.82,1.31,5.67,1.77,8.53a106.65,106.65,0,0,1,1.26,16,120.33,120.33,0,0,1-2.08,23.27,3.53,3.53,0,0,0-.19,1c.1.38,1.52.69,1.93.8a9.88,9.88,0,0,0,4.68.12,13.35,13.35,0,0,0,7.07-4.61c.34.47.89,1,1.34.34a4.36,4.36,0,0,0,.56-2.09,4.26,4.26,0,0,1,.08-1,16.59,16.59,0,0,1,.85-1.54,22.13,22.13,0,0,0,1.57-3.56c.33.32.86.76,1.36.59s.62-.72.7-1.13A10.31,10.31,0,0,0,410.74,315.13Z" transform="translate(-143.63 -192.74)"/><path class="cls-2" d="M248.07,305.23c-2.17.47-4,2.29-5.23,4.87l3.89,5.87Z" transform="translate(-143.63 -192.74)"/><path class="cls-1" d="M249.2,305.1a5.36,5.36,0,0,0-1.13.13L246.73,316l-3.89-5.87a15.52,15.52,0,0,0-1.35,6.46c0,6.33,3.45,11.46,7.71,11.46s7.71-5.13,7.71-11.46S253.46,305.1,249.2,305.1Z" transform="translate(-143.63 -192.74)"/><path class="cls-2" d="M361.06,305.23c-2.18.47-4.05,2.29-5.24,4.87l3.89,5.87Z" transform="translate(-143.63 -192.74)"/><path class="cls-1" d="M362.18,305.1a5.2,5.2,0,0,0-1.12.13L359.71,316l-3.89-5.87a15.52,15.52,0,0,0-1.34,6.46c0,6.33,3.45,11.46,7.7,11.46s7.71-5.13,7.71-11.46S366.44,305.1,362.18,305.1Z" transform="translate(-143.63 -192.74)"/></g></svg>