<svg id="Layer_1" data-name="Layer 1" xmlns="http://www.w3.org/2000/svg" viewBox="0 0 197.25 152.45"><defs><style>.cls-1{fill:#f15857;}.cls-2{fill:#8fd4db;}.cls-3{fill:#fff;}.cls-4{fill:#c7c6c5;}.cls-5{fill:#9c9c9b;}.cls-6{fill:#62c7cd;}.cls-7{fill:#dbdada;}.cls-8{fill:#b1e0e7;}.cls-9{fill:#f9babb;}.cls-10{fill:#cbeaed;}.cls-11{fill:#e53e3c;}.cls-12{fill:#dbf0f4;}.cls-13{fill:#3eb2b2;}.cls-14{fill:#424143;}</style></defs><path class="cls-1" d="M361.91,380.73l-8.35-6.59s-45.8,10.18-74.09,11.56-35,1.37-41.09-.75a52.8,52.8,0,0,1-8.31-3.43l-14.14,17.12s15,14.21,54.37,12.88,84.62-8.18,93.34-9.7,9.88-1.51,9.88-1.51v-2.43s-16.87-2.54-27.07-5S336,389.57,336,389.57l.31-5.22Z" transform="translate(-212.64 -322.66)"/><path class="cls-2" d="M258.05,391.72s-5.55,1-15.86-1.31-15-5.37-15-5.37l-9.08,11s13.71,8.42,22.6,9.63a80,80,0,0,0,12.93,1Z" transform="translate(-212.64 -322.66)"/><polygon class="cls-2" points="52.39 68.57 48.85 84.03 65.02 84.03 68.65 67.55 52.39 68.57"/><polygon class="cls-2" points="75.5 67.55 71.58 84.03 87.24 83.39 90.78 65.77 75.5 67.55"/><path class="cls-3" d="M352.78,374.14s-59.94,11.41-83.11,12.91-39.6-5.53-39.6-5.53C271.21,351.19,320.18,351.47,352.78,374.14Z" transform="translate(-212.64 -322.66)"/><path class="cls-3" d="M215.93,398.64s13.61,14.51,62.91,12.51a710,710,0,0,0,94.68-10.84l-4.11,17-20.81-6.65L298.09,421l.14,6.6,26.34,9.18s-9.08,1.23-10.72,5.9a33.79,33.79,0,0,0-1.68,5.41s-42.63,2-69.84-12.55-29.88-21.4-29.1-28.15S215.93,398.64,215.93,398.64Z" transform="translate(-212.64 -322.66)"/><path class="cls-3" d="M408.41,429.1v6.6L397.1,446.21c-35,1.09-68.15-4.56-98.87-18.59l-.14-6.6,50.51-10.37Z" transform="translate(-212.64 -322.66)"/><polygon class="cls-3" points="55.23 38.67 37.53 28.05 19.86 32.76 19.86 42.15 25.43 52.32 55.23 38.67"/><path class="cls-3" d="M321.11,360.32l34.53-34.53c6.83-2.62,13.46-2.76,19.77.8l-14.14,52.94C348.37,370,335,363.45,321.11,360.32Z" transform="translate(-212.64 -322.66)"/><path class="cls-1" d="M328.66,472.13l16.11-3.9a137,137,0,0,0,1-15c0-7.56-3.64-11.86-3.64-11.86l-18.34-4.19-2.2.76a19.38,19.38,0,0,1,10.23,14.79A36,36,0,0,1,328.66,472.13Z" transform="translate(-212.64 -322.66)"/><ellipse class="cls-3" cx="322.34" cy="456.19" rx="10.17" ry="17.77" transform="translate(-259.49 -285.65) rotate(-6.13)"/><path class="cls-4" d="M323.37,446.21a30.45,30.45,0,0,0-1.77,9.37c-.07,5,3.63,10.55,3.63,10.55s-6.12,2.84-7.88-5.17-.74-13.21.95-14.62S323.37,446.21,323.37,446.21Z" transform="translate(-212.64 -322.66)"/><path class="cls-5" d="M323.08,446.21a22.51,22.51,0,0,0-1.48,10,20.29,20.29,0,0,0,4,9.94l3-6.25s-3.29-1.82-3.43-4.51,2.52-4,2.52-4Z" transform="translate(-212.64 -322.66)"/><path class="cls-6" d="M345.78,465.16l16.63-4.9-.4-16.18-18.09-2.35C346,450.44,347.43,458.71,345.78,465.16Z" transform="translate(-212.64 -322.66)"/><path class="cls-4" d="M277,452.38s-3.66.79-5.28-2.26a21.15,21.15,0,0,1-2-5l5.09,1.12Z" transform="translate(-212.64 -322.66)"/><path class="cls-5" d="M277,451.25l-2.21-5.58,4.63,1.35C279.52,449.37,278.91,451,277,451.25Z" transform="translate(-212.64 -322.66)"/><path class="cls-3" d="M266.24,443.87l3.43.73s1.65,6.85,4.55,7.62,4.74-3.06,5.19-4l.44-.89,3.46-.52s-2.15,13.56-6.23,12.14-10.34-7.55-10.84-10.54A10.62,10.62,0,0,1,266.24,443.87Z" transform="translate(-212.64 -322.66)"/><polygon class="cls-1" points="68.45 133.54 70.67 124.2 82.08 124.63 79.36 132.03 68.45 133.54"/><polyline class="cls-6" points="82.08 124.63 82.08 128.59 91.48 125.53 82.08 124.2"/><path class="cls-7" d="M407.33,429.64l-11.18,9.55c-33.58,1.26-66.13-4.84-97.79-17.5l-.13,5.93C329,441.85,362,447.47,397,445.67l11.45-10Z" transform="translate(-212.64 -322.66)"/><polygon class="cls-7" points="30.67 49.26 21.07 33.7 19.86 42.15 25.07 53.63 30.67 49.26"/><path class="cls-6" d="M396.68,425.48l-15.38,14c-24.05.38-52.37-7.57-81.88-17.84l49.86-10.08Z" transform="translate(-212.64 -322.66)"/><polygon class="cls-6" points="54.49 39.01 45.42 33.7 25.15 39.01 31.11 49.72 54.49 39.01"/><path class="cls-7" d="M388.58,392.43l-.51-5.17s-10.3,3.88-18.69,3.46-33-6.37-33-6.37l-.31,5.22s14.79,5.78,29.5,7S388.58,392.43,388.58,392.43Z" transform="translate(-212.64 -322.66)"/><path class="cls-6" d="M374.2,390.17s-.76-3.48,2.55-4a44.18,44.18,0,0,1,5.93-.5l-12.59-2.83-20.9,4.39a125.33,125.33,0,0,0,17.33,2.91C373.65,390.61,374.2,390.17,374.2,390.17Z" transform="translate(-212.64 -322.66)"/><polygon class="cls-1" points="183.51 116.53 195.77 106.44 184.57 102.98 169.64 116.88 183.51 116.53"/><polygon class="cls-1" points="24.6 39.43 20.77 31.68 37.53 28.05 45.42 33.7 24.6 39.43"/><polygon class="cls-1" points="135.52 64.61 126.94 62.1 151 58.07 154.93 60.21 135.52 64.61"/><path class="cls-1" d="M374.66,390.37s-1.35-2.79,2.09-4.17,8.59.42,8.59.42Z" transform="translate(-212.64 -322.66)"/><path class="cls-7" d="M216.67,400.31c-7.61,26.36,63.24,40.52,101.81,38.23l-6.27,8.92C265.36,448.68,202.76,432.79,216.67,400.31Z" transform="translate(-212.64 -322.66)"/><path class="cls-8" d="M395.83,426.84l1-1.32-47.62-14.69-6.51,2.3L395,428.79A5.51,5.51,0,0,1,395.83,426.84Z" transform="translate(-212.64 -322.66)"/><path class="cls-9" d="M396.68,425.48a9.88,9.88,0,0,1-2.15,3.18l10.33,3.09,3.55-2.65Z" transform="translate(-212.64 -322.66)"/><path class="cls-8" d="M257.65,355.52a14.48,14.48,0,0,1-4.81,2.53,78,78,0,0,0,9.1,6l5.92-2Z" transform="translate(-212.64 -322.66)"/><path class="cls-9" d="M255.09,357.27c1.23-.35,2.47-.68,3.7-1l-8.62-5.54-3.63,1.41a40.89,40.89,0,0,0,6.45,6A9.34,9.34,0,0,1,255.09,357.27Z" transform="translate(-212.64 -322.66)"/><path class="cls-10" d="M225.12,387.51c7.38,6.16,18.19,9.13,31.22,9l1.41-5.27c-12.09.61-22.31-1.4-30.17-6.69Z" transform="translate(-212.64 -322.66)"/><polygon class="cls-10" points="51.98 73.38 67.48 72.84 68.05 67.86 53.2 68.57 51.98 73.38"/><polygon class="cls-10" points="74.35 72.38 90.24 71.22 90.69 66.22 75.5 67.55 74.35 72.38"/><path class="cls-11" d="M367.73,401a22.65,22.65,0,0,0,5.12-1l-.09-2.16-37.15-7.06a75.78,75.78,0,0,0,27,12.11A8.25,8.25,0,0,1,367.73,401Z" transform="translate(-212.64 -322.66)"/><path class="cls-7" d="M363.78,402.26a14.93,14.93,0,0,1-1.91.37,108.41,108.41,0,0,0,11.18,2.21l-.17-4.24C369.85,401.17,366.79,401.47,363.78,402.26Z" transform="translate(-212.64 -322.66)"/><path class="cls-12" d="M375.21,327.34c-13.34-9.65-26.15,3.07-38.87,19.32C352,333.06,361.15,324.69,375.21,327.34Z" transform="translate(-212.64 -322.66)"/><path class="cls-12" d="M347,375.76a58.92,58.92,0,0,0,7.4-.94c-17.71-12.58-39.47-18.9-68-14.72,25,1.78,46.07,6.35,60.47,15.67Z" transform="translate(-212.64 -322.66)"/><path class="cls-9" d="M352.92,373.8a17.25,17.25,0,0,1-7.55,1.05,51.91,51.91,0,0,1,8.86,6.68l7.68-.8A99.58,99.58,0,0,0,352.92,373.8Z" transform="translate(-212.64 -322.66)"/><path class="cls-11" d="M343.82,441.69c0-.09.06-.18.08-.27L326.05,438l-1.48.27,1.26,2.16a152.83,152.83,0,0,0,18.28,6.42A9.1,9.1,0,0,1,343.82,441.69Z" transform="translate(-212.64 -322.66)"/><path class="cls-13" d="M344.09,446.83a93.43,93.43,0,0,0,18.32,3.29l-.38-5.23-19.67-3.77A7.62,7.62,0,0,1,344.09,446.83Z" transform="translate(-212.64 -322.66)"/><path class="cls-14" d="M220.54,421.05A18,18,0,0,1,217.36,399c12.49-21.71,39-36.31,70.84-39.05,3.44-.3,6.86-.44,10.25-.44,24.65,0,47.33,7.74,62.59,21.3a8,8,0,0,1,2.6-.72c-17.77-16.49-45.89-25-75.63-22.43-32.62,2.81-59.77,17.84-72.64,40.2A20.25,20.25,0,0,0,219,422.71c17,16.14,49.91,26,80.7,26,4.23,0,8.41-.19,12.51-.57a9.46,9.46,0,0,1,.32-2.31C279,449.08,239.58,439.11,220.54,421.05Z" transform="translate(-212.64 -322.66)"/><path class="cls-14" d="M372.51,398.09l-.3,0a19.76,19.76,0,0,1-.56,7.75,47.18,47.18,0,0,1-4.43,10.71,8.91,8.91,0,0,1,2.19.77,49.34,49.34,0,0,0,4.45-10.87,21.9,21.9,0,0,0,.61-8.55A9.27,9.27,0,0,1,372.51,398.09Z" transform="translate(-212.64 -322.66)"/><path class="cls-14" d="M372.75,406.13h0Z" transform="translate(-212.64 -322.66)"/><path class="cls-14" d="M372.27,391.86a104.53,104.53,0,0,1-36.61-6.77,1.15,1.15,0,0,1-.74-1.21,1.14,1.14,0,0,1,1-1l26.37-3.34a1.28,1.28,0,0,1,.39,0L389,385.32a1.14,1.14,0,0,1,.9,1.07,1.15,1.15,0,0,1-.81,1.14l-13.95,4.25a1.57,1.57,0,0,1-.3.05Q373.58,391.86,372.27,391.86Zm-31.2-7.33a100.22,100.22,0,0,0,33.6,5l9.59-2.92-21.89-4.78Z" transform="translate(-212.64 -322.66)"/><path class="cls-14" d="M374.29,398.58h-.05c-15.08-.7-28.08-3.35-38.63-7.87a1.16,1.16,0,0,1-.7-1V384a1.15,1.15,0,0,1,2.29,0v4.89c10.17,4.23,22.64,6.71,37.09,7.39,6-.29,10.43-1.75,13.36-4.46v-5.39a1.15,1.15,0,1,1,2.29,0v5.88a1.11,1.11,0,0,1-.34.81c-3.36,3.35-8.35,5.13-15.26,5.45Z" transform="translate(-212.64 -322.66)"/><path class="cls-14" d="M346.12,388.36a1.15,1.15,0,0,1-.2-2.28l25.44-4.53a1.14,1.14,0,0,1,.41,2.25l-25.44,4.54Z" transform="translate(-212.64 -322.66)"/><path class="cls-14" d="M374.85,391.83a1.14,1.14,0,0,1-1.1-.83,4.16,4.16,0,0,1,.68-4.08c1.89-2.18,6.5-2.7,14.51-1.62a1.14,1.14,0,1,1-.3,2.27c-9.15-1.23-11.75,0-12.48.85a1.9,1.9,0,0,0-.21,1.94,1.14,1.14,0,0,1-.78,1.42A1.25,1.25,0,0,1,374.85,391.83Z" transform="translate(-212.64 -322.66)"/><path class="cls-14" d="M360.93,380.28a1.55,1.55,0,0,1-.31,0,1.16,1.16,0,0,1-.8-1.42l14.42-51.58c-7-3.17-13-3.08-18.53.28l-34.2,33.78a1.15,1.15,0,0,1-1.61-1.63l34.29-33.87a1.56,1.56,0,0,1,.2-.16c6.39-4,13.7-4,21.72-.05a1.15,1.15,0,0,1,.6,1.34L362,379.44A1.14,1.14,0,0,1,360.93,380.28Z" transform="translate(-212.64 -322.66)"/><path class="cls-14" d="M390.4,440.83A232.72,232.72,0,0,1,297.92,422a1.12,1.12,0,0,1-.68-1.17,1.14,1.14,0,0,1,.92-1l50.22-9.73a1.23,1.23,0,0,1,.54,0L409.06,428a1.15,1.15,0,0,1,.42,2L397,440.5a1.22,1.22,0,0,1-.71.27C394.3,440.81,392.35,440.83,390.4,440.83Zm-88.1-19.46a231.3,231.3,0,0,0,93.5,17.11l10.57-8.89-57.83-17.18Z" transform="translate(-212.64 -322.66)"/><path class="cls-14" d="M389.14,447.29a226.19,226.19,0,0,1-91.22-18.68,1.14,1.14,0,0,1-.69-1.05V421a1.15,1.15,0,0,1,2.29,0v5.85c30,13,62.63,19.08,96.86,18.08l11.21-9.95V429.1a1.15,1.15,0,1,1,2.29,0v6.35a1.17,1.17,0,0,1-.38.86l-11.91,10.57a1.15,1.15,0,0,1-.73.29C394.28,447.25,391.7,447.29,389.14,447.29Z" transform="translate(-212.64 -322.66)"/><path class="cls-14" d="M381.15,440.42a1.11,1.11,0,0,1-.72-2l16.48-13.54a1.14,1.14,0,0,1,1.59.14,1.11,1.11,0,0,1-.15,1.57l-16.48,13.54A1.1,1.1,0,0,1,381.15,440.42Z" transform="translate(-212.64 -322.66)"/><path class="cls-14" d="M245.48,372.19a76.76,76.76,0,0,1-11.16-16.9l15.91-3.36a89.61,89.61,0,0,0,15.88,10.3,7.73,7.73,0,0,1,2.69-1.18,89.67,89.67,0,0,1-17.52-11.23,1.12,1.12,0,0,0-1-.24l-17.86,3.77a1.15,1.15,0,0,0-.79.6,1.18,1.18,0,0,0,0,1,78.22,78.22,0,0,0,11,17.44A18.77,18.77,0,0,1,245.48,372.19Z" transform="translate(-212.64 -322.66)"/><path class="cls-14" d="M238.64,374.32a40.29,40.29,0,0,1-4.82-9.62V354.47a1.15,1.15,0,1,0-2.29,0v10.42a1.09,1.09,0,0,0,.06.36,42.75,42.75,0,0,0,5.61,11A8.32,8.32,0,0,1,238.64,374.32Z" transform="translate(-212.64 -322.66)"/><path class="cls-14" d="M324.1,475.11c-5.86,0-11.39-7.29-12.88-17.28-1.59-10.57,2-19.59,8.27-20.52s12.34,6.63,13.92,17.2a27.46,27.46,0,0,1-1.1,13.55c-1.54,4-4.08,6.51-7.17,7A7.4,7.4,0,0,1,324.1,475.11Zm-3.59-35.58a3.89,3.89,0,0,0-.68.05c-4.79.72-7.7,8.92-6.35,17.91s6.54,16,11.32,15.27c2.23-.33,4.14-2.29,5.37-5.52a25.19,25.19,0,0,0,1-12.39h0C329.86,446.28,325.1,439.53,320.51,439.53Z" transform="translate(-212.64 -322.66)"/><path class="cls-14" d="M323.39,467.74c-3.59,0-7-4.45-7.9-10.55-1-6.46,1.27-12,5.1-12.54,1.91-.29,3.86.71,5.49,2.81a16.78,16.78,0,0,1,3.06,7.69h0c1,6.46-1.28,12-5.1,12.54A4.74,4.74,0,0,1,323.39,467.74Zm-2.16-21.53a2.6,2.6,0,0,0-.4,0c-2.84.42-4.56,5.33-3.75,10.71s3.88,9.58,6.72,9.15,4.56-5.33,3.75-10.71h0a15.11,15.11,0,0,0-2.74-6.95A4.86,4.86,0,0,0,321.23,446.21Z" transform="translate(-212.64 -322.66)"/><path class="cls-14" d="M325.07,437.69a11.61,11.61,0,0,1-1.76-.89l-1.05.1a1.14,1.14,0,0,0,.21,2.28l5.45-.5C327,438.38,326,438.06,325.07,437.69Z" transform="translate(-212.64 -322.66)"/><path class="cls-14" d="M341.08,441.34c4.94,7.52,5.5,16.37,1.7,26.91l-15.45,3.45a1.15,1.15,0,0,0,.24,2.27,1,1,0,0,0,.25,0l16.07-3.59a1.14,1.14,0,0,0,.82-.72c4-10.65,3.71-20-.76-27.94C343,441.61,342,441.49,341.08,441.34Z" transform="translate(-212.64 -322.66)"/><path class="cls-14" d="M360.5,445.09a25.35,25.35,0,0,1,0,15.25l-16.09,4.46a1.15,1.15,0,0,0,.62,2.21l16.67-4.62a1.2,1.2,0,0,0,.78-.74,27.41,27.41,0,0,0,.39-16.51C362.1,445.14,361.29,445.12,360.5,445.09Z" transform="translate(-212.64 -322.66)"/><path class="cls-14" d="M325.66,466.93a.81.81,0,0,1-.57-.24c-6-6.08-6-16.1-2.13-21a.8.8,0,1,1,1.25,1c-3,3.78-3.72,13,2,18.87a.81.81,0,0,1,0,1.14A.83.83,0,0,1,325.66,466.93Z" transform="translate(-212.64 -322.66)"/><path class="cls-14" d="M327.86,460.26h-.09c-1.71-.2-2.88-2.27-3.24-4.1-.46-2.32.22-4.29,1.78-5.16a.81.81,0,0,1,1.09.31.79.79,0,0,1-.31,1.09c-1.11.62-1.24,2.18-1,3.44.33,1.65,1.22,2.75,1.86,2.83a.8.8,0,0,1-.1,1.59Z" transform="translate(-212.64 -322.66)"/><path class="cls-14" d="M282.22,447.08a18,18,0,0,1-1.06,5.61c-1,2.65-2.56,4.26-4.37,4.53s-3.77-.81-5.51-3.05a21.05,21.05,0,0,1-3.8-9.63c0-.2,0-.39-.07-.58-.45,0-.91,0-1.37,0a9.36,9.36,0,0,1-.94-.05c0,.34.07.67.12,1a23.14,23.14,0,0,0,4.26,10.71c2,2.59,4.38,4,6.75,4a5.46,5.46,0,0,0,.9-.07c2.66-.39,4.85-2.52,6.17-6a20.11,20.11,0,0,0,1.19-6C283.74,447.38,283,447.24,282.22,447.08Z" transform="translate(-212.64 -322.66)"/><path class="cls-14" d="M280.44,446.68l-1.34-.35c-.27,2.89-1.46,5.09-3.14,5.35-2.28.33-4.76-3-5.47-7.38-.55-.09-1.1-.16-1.66-.22l0,.25c.78,5.19,3.69,9,6.78,9a3.6,3.6,0,0,0,.56,0c2.41-.36,4.08-3,4.48-6.53Z" transform="translate(-212.64 -322.66)"/><path class="cls-14" d="M293.25,448.27a37.7,37.7,0,0,1-1.46,5.18l-12.89,2.88a1.15,1.15,0,0,0,.25,2.27,1.07,1.07,0,0,0,.25,0l13.5-3a1.14,1.14,0,0,0,.83-.72,39.07,39.07,0,0,0,1.84-6.55Z" transform="translate(-212.64 -322.66)"/><path class="cls-14" d="M301,448.39l-7.72,2.14a1.15,1.15,0,0,0,.31,2.25,1,1,0,0,0,.3,0l14-3.89a1.12,1.12,0,0,0,.78-.73c.07-.22.14-.44.2-.66C306.49,448.5,303.73,448.51,301,448.39Z" transform="translate(-212.64 -322.66)"/><path class="cls-14" d="M274.88,445.23c-.57-.15-1.15-.29-1.72-.42a14.44,14.44,0,0,0,3.81,7.57.81.81,0,0,0,.57.24.83.83,0,0,0,.57-.23.8.8,0,0,0,0-1.13A12.51,12.51,0,0,1,274.88,445.23Z" transform="translate(-212.64 -322.66)"/><path class="cls-14" d="M277.57,445.93A2.66,2.66,0,0,0,279.3,447h.09a.81.81,0,0,0,.71-.43C279.25,446.38,278.41,446.16,277.57,445.93Z" transform="translate(-212.64 -322.66)"/><path class="cls-14" d="M259,388.43c-12.59,0-22.7-1.71-29.15-6.06a1.15,1.15,0,0,1,1.28-1.9c17.13,11.55,64.92,3,111.14-5.27,4-.72,7.64-1.45,11.64-2.16.62-.11,1.59.33,1.7.95a1.15,1.15,0,0,1-.93,1.33l-12,2.13C311.47,383,281.36,388.43,259,388.43Z" transform="translate(-212.64 -322.66)"/><path class="cls-14" d="M269.77,412.41c-25.27,0-45.12-3.56-54.24-13.22a1.15,1.15,0,0,1,1.67-1.57c19.31,20.46,93.59,11.68,156.14,1.75a1.14,1.14,0,0,1,.36,2.26C337.33,407.4,299.74,412.41,269.77,412.41Z" transform="translate(-212.64 -322.66)"/><path class="cls-14" d="M259.2,390.46a1.17,1.17,0,0,0-1-.44c-12.36.63-22.26-1.37-29.44-5.93a7.25,7.25,0,0,1-1.84,1.54c7.34,4.89,17.34,7.16,29.8,6.75l-3.84,13.28c-13.24-.46-24.28-4.11-33.73-11.14a7.51,7.51,0,0,1-1.88,1.44l.06.06c10.14,7.71,22,11.62,36.37,12h0a1.15,1.15,0,0,0,1.1-.83l4.53-15.66A1.15,1.15,0,0,0,259.2,390.46Z" transform="translate(-212.64 -322.66)"/><path class="cls-14" d="M277.53,408.34H261a1.11,1.11,0,0,1-.9-.45,1.13,1.13,0,0,1-.2-1l4.38-16.49a1.14,1.14,0,0,1,1.06-.85l16.24-.68a1.1,1.1,0,0,1,.93.41,1.14,1.14,0,0,1,.23,1l-4.05,17.18A1.15,1.15,0,0,1,277.53,408.34Zm-15.08-2.29h14.18l3.49-14.82-13.88.58Z" transform="translate(-212.64 -322.66)"/><path class="cls-14" d="M284,408a1.13,1.13,0,0,1-1.11-1.4l4-17.19a1.15,1.15,0,0,1,1-.88l15.91-1.47a1.1,1.1,0,0,1,1,.37,1.15,1.15,0,0,1,.29,1l-3.24,18.05a1.15,1.15,0,0,1-1.09.94L284,408Zm4.95-17.26-3.49,14.92,14.27-.52,2.81-15.66Z" transform="translate(-212.64 -322.66)"/><path class="cls-14" d="M236.65,363.18a1.15,1.15,0,0,1-.28-2.26l21.93-5.47a1.15,1.15,0,0,1,.55,2.23l-21.92,5.46A1,1,0,0,1,236.65,363.18Z" transform="translate(-212.64 -322.66)"/></svg>