<svg id="Layer_1" data-name="Layer 1" xmlns="http://www.w3.org/2000/svg" viewBox="0 0 184.96 197.68"><defs><style>.cls-1{fill:#d6322e;}.cls-2{fill:#5a434e;}.cls-3{fill:#f1605d;}.cls-4{fill:#010101;}</style></defs><path class="cls-1" d="M223.63,329.64l1.39,7.15a5.89,5.89,0,0,0,3.09,4.11s2.58,1.3,7.13,3.21c0,0-.37,10.89-.38,10.95L223.73,354l-.51,0a5.89,5.89,0,0,0-5.84,5.13l-1.19,9.25a5.9,5.9,0,0,0,5.28,6.6l14.69,1.41-9.09,102.14a5.88,5.88,0,0,0,5,6.34l10.87,1.65a5.49,5.49,0,0,0,.91.07,5.88,5.88,0,0,0,5.85-5.23L261,378.73l74.61,7.17-5.05,105a5.9,5.9,0,0,0,5.83,6.16l11.07.07a5.91,5.91,0,0,0,5.87-5.48l7.15-103.35,16.18,1.55a5.55,5.55,0,0,0,.56,0,5.87,5.87,0,0,0,3.78-1.37,5.94,5.94,0,0,0,2.09-4.05l.71-9a5.91,5.91,0,0,0-5.29-6.32l-13.38-1.31,1.18-9.56c3.38-.58,5.17-1,5.17-1a5.85,5.85,0,0,0,4.22-3.86l2.36-7.08c6.91-1,11.14-1.79,11.16-1.79a5.88,5.88,0,0,0,4.68-4.66L397,324a5.88,5.88,0,0,0-5.77-7,6.77,6.77,0,0,0-.89.06,404.94,404.94,0,0,1-52.16,3.23c-12.08,0-23.69-.54-34.51-1.61-42.19-4.15-82.75-18.71-83.13-18.85a5.88,5.88,0,0,0-7.91,5.34L212.12,321a5.92,5.92,0,0,0,3.69,5.63C216.39,326.91,219.14,328,223.63,329.64Z" transform="translate(-212.12 -299.46)"/><path class="cls-2" d="M390.6,334.11l2.69-13.88c-7.65,1-46.24,5.5-87,1.48-39.07-3.84-76.27-16.26-83.54-18.79l-.42,13.85c5.1,2,40.25,15.58,77.56,21C337.54,343.25,384.53,335.2,390.6,334.11Z" transform="translate(-212.12 -299.46)"/><path class="cls-3" d="M299.6,339.72c-26.42-3.84-51.75-11.74-66.23-16.79l1.61,8.28A216.27,216.27,0,0,0,305,349.85c36.86,3.23,63.59-2.07,67.63-2.94l2.84-8.53A367.91,367.91,0,0,1,329,341.62,208.43,208.43,0,0,1,299.6,339.72Z" transform="translate(-212.12 -299.46)"/><polygon class="cls-3" points="167.51 79.68 168.07 72.63 147.76 70.64 147.26 77.73 167.51 79.68"/><path class="cls-3" d="M343.13,353.08l.92,9.37,17.61.41,1.53-12.33c-5.16.73-12.06,1.5-20.37,1.94A.93.93,0,0,1,343.13,353.08Z" transform="translate(-212.12 -299.46)"/><polygon class="cls-3" points="128.65 186.95 137.73 187.01 146.16 65.29 134.52 65.02 128.65 186.95"/><polygon class="cls-3" points="15.27 57.65 14.33 64.95 32.84 66.73 33.49 59.44 15.27 57.65"/><polygon class="cls-3" points="48.85 60.95 48.05 68.19 132.01 76.26 132.36 69.12 48.85 60.95"/><path class="cls-3" d="M248.12,352.84l-.43,4.86a1,1,0,0,1,.05.42,1,1,0,0,1-.12.39L237.31,474.38l9,1.37,13.38-121.34Z" transform="translate(-212.12 -299.46)"/><path class="cls-3" d="M300.17,351.33,299,362.15l12,1.18.53-11q-3.27-.19-6.66-.5C303.29,351.67,301.73,351.5,300.17,351.33Z" transform="translate(-212.12 -299.46)"/><path class="cls-3" d="M264.77,344.27c-7.66-2.18-14.19-4.48-19.26-6.44l-.43,12.62,17.45,2.37Z" transform="translate(-212.12 -299.46)"/><path class="cls-4" d="M231.26,322.35l1.89,9.71a1,1,0,0,0,.52.69c.1.05,3.71,1.86,10,4.36a1,1,0,0,0-.11.42l-.47,13.74a1,1,0,0,0,.84,1l2.26.31a.14.14,0,0,0,0,.06l-.38,4.3-19.16-1.88a1,1,0,0,0-1.07.86l-1.18,9.24a1,1,0,0,0,.2.73,1,1,0,0,0,.67.37l19.54,1.88-9.52,107a1,1,0,0,0,.83,1.06l10.9,1.66h.15a1,1,0,0,0,.59-.2,1,1,0,0,0,.38-.67L260,369.59,344,377.68l-5.28,109.65a1,1,0,0,0,.27.73,1,1,0,0,0,.7.3l11,.08h0a1,1,0,0,0,1-.92l7.51-108.38,21.19,2h.09a1,1,0,0,0,1-.91l.71-9a1,1,0,0,0-.88-1L360,368.14l.23-3.29s0,0,0-.06l2.27,0h0a1,1,0,0,0,1-.86l1.69-13.64s0-.07,0-.1c5.38-.82,8.38-1.52,8.47-1.54a1,1,0,0,0,.7-.64l3.32-9.95h0c8.46-1.15,13.78-2.15,13.94-2.18a1,1,0,0,0,.78-.78l3.08-15.87a1,1,0,0,0-.25-.87,1,1,0,0,0-.85-.29c-.42.06-42.82,6.09-87.9,1.65-43.09-4.24-83.93-19-84.34-19.13a1,1,0,0,0-.89.11,1,1,0,0,0-.43.78l-.47,15.87a1,1,0,0,0,.61.94c.12.05,3.91,1.59,10.31,3.86A.85.85,0,0,0,231.26,322.35Zm14.25,15.48c5.07,2,11.6,4.26,19.26,6.44l-2.24,8.55-17.45-2.37Zm96.68,25.68a1,1,0,0,0,.95.89l1.54,0-.11,2.18L313,363.52l.54-11.1c5.31.3,10.38.43,15.15.43,4.54,0,8.81-.12,12.78-.31a1,1,0,0,0-.24.73ZM311,363.33l-12-1.18,1.16-10.82c1.56.17,3.12.34,4.7.47q3.39.3,6.66.5ZM297.06,362l-35.87-3.51.41-3.78,1.52.21h.14a1,1,0,0,0,.94-.73l2.46-9.36a218.13,218.13,0,0,0,31.57,6.3Zm-70.61,2.44.93-7.29,18.23,1.79-.65,7.28Zm19.83,111.35-9-1.37,10.31-115.87a1,1,0,0,0,.12-.39,1,1,0,0,0-.05-.42l.43-4.86,11.54,1.57Zm13.89-108.11.8-7.24,83.51,8.17-.35,7.14Zm120,4.45-.56,7.05-20.25-1.95.5-7.1ZM349.85,486.47l-9.08-.06,5.87-121.93,11.64.26Zm11.81-123.61-17.61-.41-.92-9.37a.93.93,0,0,0-.31-.61c8.31-.44,15.21-1.21,20.37-1.94Zm11-15.95c-4,.87-30.77,6.17-67.63,2.94A216.27,216.27,0,0,1,235,331.21l-1.61-8.28c14.48,5.05,39.81,12.95,66.23,16.79a208.43,208.43,0,0,0,29.42,1.9,367.91,367.91,0,0,0,46.49-3.24Zm-149.93-44c7.27,2.53,44.47,14.95,83.54,18.79,40.77,4,79.36-.49,87-1.48l-2.69,13.88c-6.07,1.09-53.06,9.14-90.72,3.67-37.31-5.43-72.46-19-77.56-21Z" transform="translate(-212.12 -299.46)"/><path class="cls-2" d="M247.45,465.12c-3.48-.38-6.64-.87-9.2-1.34l-.94,10.6,9,1.37Z" transform="translate(-212.12 -299.46)"/><path class="cls-2" d="M350.58,476c-3.32-.22-6.47-.58-9.26-1l-.55,11.43,9.08.06Z" transform="translate(-212.12 -299.46)"/></svg>